<?xml version="1.0" encoding="UTF-8" standalone="no"?>
<svg
   xmlns:dc="http://purl.org/dc/elements/1.1/"
   xmlns:cc="http://creativecommons.org/ns#"
   xmlns:rdf="http://www.w3.org/1999/02/22-rdf-syntax-ns#"
   xmlns:svg="http://www.w3.org/2000/svg"
   xmlns="http://www.w3.org/2000/svg"
   xmlns:sodipodi="http://sodipodi.sourceforge.net/DTD/sodipodi-0.dtd"
   xmlns:inkscape="http://www.inkscape.org/namespaces/inkscape"
   height="23.944916"
   id="Layer_1"
   version="1.1"
   viewBox="0 0 23.945 23.944916"
   width="23.945"
   xml:space="preserve"
   sodipodi:docname="linkedIn-icon.svg"
   inkscape:version="0.92.3 (2405546, 2018-03-11)"><metadata
     id="metadata9"><rdf:RDF><cc:Work
         rdf:about=""><dc:format>image/svg+xml</dc:format><dc:type
           rdf:resource="http://purl.org/dc/dcmitype/StillImage" /><dc:title></dc:title></cc:Work></rdf:RDF></metadata><defs
     id="defs7" /><sodipodi:namedview
     pagecolor="#ffffff"
     bordercolor="#666666"
     borderopacity="1"
     objecttolerance="10"
     gridtolerance="10"
     guidetolerance="10"
     inkscape:pageopacity="0"
     inkscape:pageshadow="2"
     inkscape:window-width="1360"
     inkscape:window-height="746"
     id="namedview5"
     showgrid="false"
     fit-margin-top="0"
     fit-margin-left="0"
     fit-margin-right="0"
     fit-margin-bottom="0"
     inkscape:zoom="3.5223881"
     inkscape:cx="29.5"
     inkscape:cy="-28.266949"
     inkscape:window-x="-8"
     inkscape:window-y="-8"
     inkscape:window-maximized="1"
     inkscape:current-layer="Layer_1" /><path
     d="m 18.691867,17.614279 v -4.674048 c 0,-2.504239 -1.336931,-3.669558 -3.119236,-3.669558 -1.438297,0 -2.082816,0.791379 -2.441991,1.346502 V 9.4622323 h -2.709776 c 0.03592,0.7650397 0,8.1520467 0,8.1520467 h 2.709776 v -4.552727 c 0,-0.243041 0.01756,-0.486481 0.0894,-0.66048 0.195551,-0.48688 0.641326,-0.990921 1.389608,-0.990921 0.980946,0 1.372847,0.747481 1.372847,1.842961 v 4.361566 H 18.69187 Z M 7.5662209,8.3495919 c 0.9446303,0 1.5332783,-0.6265586 1.5332783,-1.4091582 -0.01756,-0.7993611 -0.588648,-1.407961 -1.5153195,-1.407961 -0.9266715,0 -1.532879,0.6082008 -1.532879,1.407961 0,0.7825996 0.5882487,1.4091582 1.4977597,1.4091582 z M 11.9725,23.944915 C 5.3604875,23.944915 0,18.584447 0,11.972458 0,5.3600693 5.3604875,0 11.9725,0 18.584513,0 23.945,5.3600693 23.945,11.972458 c 0,6.611989 -5.360487,11.972457 -11.9725,11.972457 z M 8.921109,17.614279 V 9.4622323 H 6.2117322 v 8.1520467 z"
     style="clip-rule:evenodd;fill:#010101;fill-rule:evenodd;stroke-width:0.39908263"
     id="path2"
     inkscape:connector-curvature="0" /></svg>