<?xml version="1.0" encoding="UTF-8" standalone="no"?>
<svg
   xmlns:dc="http://purl.org/dc/elements/1.1/"
   xmlns:cc="http://creativecommons.org/ns#"
   xmlns:rdf="http://www.w3.org/1999/02/22-rdf-syntax-ns#"
   xmlns:svg="http://www.w3.org/2000/svg"
   xmlns="http://www.w3.org/2000/svg"
   xmlns:sodipodi="http://sodipodi.sourceforge.net/DTD/sodipodi-0.dtd"
   xmlns:inkscape="http://www.inkscape.org/namespaces/inkscape"
   id="Layer_1"
   data-name="Layer 1"
   viewBox="0 0 23.999991 23.999992"
   version="1.1"
   sodipodi:docname="net.svg"
   width="23.99999"
   height="23.999992"
   inkscape:version="0.92.3 (2405546, 2018-03-11)">
  <metadata
     id="metadata23">
    <rdf:RDF>
      <cc:Work
         rdf:about="">
        <dc:format>image/svg+xml</dc:format>
        <dc:type
           rdf:resource="http://purl.org/dc/dcmitype/StillImage" />
        <dc:title>logo_NET</dc:title>
      </cc:Work>
    </rdf:RDF>
  </metadata>
  <sodipodi:namedview
     pagecolor="#ffffff"
     bordercolor="#666666"
     borderopacity="1"
     objecttolerance="10"
     gridtolerance="10"
     guidetolerance="10"
     inkscape:pageopacity="0"
     inkscape:pageshadow="2"
     inkscape:window-width="640"
     inkscape:window-height="480"
     id="namedview21"
     showgrid="false"
     fit-margin-top="0"
     fit-margin-left="0"
     fit-margin-right="0"
     fit-margin-bottom="0"
     inkscape:zoom="3.6875"
     inkscape:cx="32.89072"
     inkscape:cy="32.89072"
     inkscape:window-x="-40"
     inkscape:window-y="24"
     inkscape:window-maximized="0"
     inkscape:current-layer="Layer_1" />
  <defs
     id="defs4">
    <style
       id="style2">.cls-1{fill:#5c2d91;}.cls-2,.cls-3{fill:#fff;}.cls-2{opacity:0.1;}</style>
  </defs>
  <title
     id="title6">logo_NET</title>
  <circle
     class="cls-1"
     cx="12.164709"
     cy="11.83528"
     r="11.83528"
     id="circle8"
     style="fill:#5c2d91;stroke-width:0.36985251" />
  <path
     class="cls-2"
     d="M 3.9613808,3.328674 A 11.83528,11.83528 0 1 0 20.671318,20.038611 Z"
     id="path10"
     inkscape:connector-curvature="0"
     style="opacity:0.1;fill:#ffffff;stroke-width:0.36985251" />
  <path
     class="cls-3"
     d="M 3.0663376,15.256418 A 0.49930089,0.49930089 0 0 1 2.6964851,15.10108 0.51039647,0.51039647 0 0 1 2.5448456,14.731227 0.51779352,0.51779352 0 0 1 2.6964851,14.361375 0.49560237,0.49560237 0 0 1 3.0663376,14.202338 0.50669794,0.50669794 0 0 1 3.4361901,14.361375 0.51409499,0.51409499 0 0 1 3.5915282,14.731227 0.50669794,0.50669794 0 0 1 3.4361901,15.10108 0.51039647,0.51039647 0 0 1 3.0663376,15.256418 Z"
     id="path12"
     inkscape:connector-curvature="0"
     style="fill:#ffffff;stroke-width:0.36985251" />
  <path
     class="cls-3"
     d="M 10.415307,15.163955 H 9.4462936 L 5.9807756,9.786299 A 2.2413062,2.2413062 0 0 1 5.7662611,9.364667 h -0.029588 a 6.9199405,6.9199405 0 0 1 0.036985,0.924632 v 4.874656 H 4.9858723 V 8.421544 h 1.0244915 l 3.3730549,5.281493 q 0.2108159,0.329169 0.2736908,0.45122 h 0.018493 A 7.134455,7.134455 0 0 1 9.6275215,13.163053 V 8.421544 h 0.7877855 z"
     id="path14"
     inkscape:connector-curvature="0"
     style="fill:#ffffff;stroke-width:0.36985251" />
  <path
     class="cls-3"
     d="M 15.748581,15.163955 H 12.16471 V 8.421544 h 3.417437 v 0.713815 h -2.611159 v 2.241306 h 2.43363 v 0.710117 h -2.43363 v 2.337468 h 2.781291 z"
     id="path16"
     inkscape:connector-curvature="0"
     style="fill:#ffffff;stroke-width:0.36985251" />
  <path
     class="cls-3"
     d="m 21.04117,9.135359 h -1.960218 v 6.028596 H 18.293166 V 9.135359 H 16.355139 V 8.421544 h 4.686031 z"
     id="path18"
     inkscape:connector-curvature="0"
     style="fill:#ffffff;stroke-width:0.36985251" />
</svg>
